CalSansUI-TextBold.ufo
<glyph name="plus" format="2">
  <advance width="596.0"/>
  <unicode hex="002B"/>
  <outline>
    <contour>
      <point x="72.0" y="261.0" type="line"/>
      <point x="524.0" y="261.0" type="line"/>
      <point x="524.0" y="371.0" type="line"/>
      <point x="72.0" y="371.0" type="line"/>
    </contour>
    <contour>
      <point x="240.0" y="84.0" type="line"/>
      <point x="356.0" y="84.0" type="line"/>
      <point x="356.0" y="546.0" type="line"/>
      <point x="240.0" y="546.0" type="line"/>
    </contour>
  </outline>
</glyph>
<glyph name="three" format="2">
  <advance width="589.0"/>
  <unicode hex="0033"/>
  <outline>
    <contour>
      <point x="276.0" y="-13.0" type="curve" smooth="yes"/>
      <point x="426.0" y="-13.0"/>
      <point x="520.0" y="72.0"/>
      <point x="520.0" y="203.0" type="curve" smooth="yes"/>
      <point x="520.0" y="272.0"/>
      <point x="470.0" y="347.0"/>
      <point x="390.0" y="369.0" type="curve"/>
      <point x="390.0" y="373.0" type="line"/>
      <point x="456.0" y="386.0"/>
      <point x="504.0" y="446.0"/>
      <point x="504.0" y="517.0" type="curve" smooth="yes"/>
      <point x="504.0" y="634.0"/>
      <point x="407.0" y="713.0"/>
      <point x="274.0" y="713.0" type="curve" smooth="yes"/>
      <point x="146.0" y="713.0"/>
      <point x="35.0" y="634.0"/>
      <point x="38.0" y="500.0" type="curve"/>
      <point x="173.0" y="500.0" type="line"/>
      <point x="170.0" y="546.0"/>
      <point x="215.0" y="583.0"/>
      <point x="273.0" y="583.0" type="curve" smooth="yes"/>
      <point x="331.0" y="583.0"/>
      <point x="369.0" y="548.0"/>
      <point x="369.0" y="498.0" type="curve" smooth="yes"/>
      <point x="369.0" y="444.0"/>
      <point x="332.0" y="408.0"/>
      <point x="271.0" y="408.0" type="curve" smooth="yes"/>
      <point x="186.0" y="408.0" type="line"/>
      <point x="186.0" y="290.0" type="line"/>
      <point x="271.0" y="291.0" type="line" smooth="yes"/>
      <point x="345.0" y="292.0"/>
      <point x="381.0" y="260.0"/>
      <point x="381.0" y="202.0" type="curve" smooth="yes"/>
      <point x="381.0" y="150.0"/>
      <point x="346.0" y="108.0"/>
      <point x="276.0" y="108.0" type="curve" smooth="yes"/>
      <point x="215.0" y="108.0"/>
      <point x="166.0" y="151.0"/>
      <point x="169.0" y="209.0" type="curve"/>
      <point x="29.0" y="209.0" type="line"/>
      <point x="26.0" y="73.0"/>
      <point x="124.0" y="-13.0"/>
    </contour>
  </outline>
</glyph>
<glyph name="seven" format="2">
  <advance width="540.0"/>
  <unicode hex="0037"/>
  <outline>
    <contour>
      <point x="91.0" y="0.0" type="line"/>
      <point x="241.0" y="0.0" type="line"/>
      <point x="524.0" y="685.0" type="line"/>
      <point x="524.0" y="700.0" type="line"/>
      <point x="20.0" y="700.0" type="line"/>
      <point x="20.0" y="577.0" type="line"/>
      <point x="329.0" y="577.0" type="line"/>
      <point x="329.0" y="574.0" type="line"/>
      <point x="321.0" y="565.0"/>
      <point x="315.0" y="555.0"/>
      <point x="311.0" y="544.0" type="curve" smooth="yes"/>
    </contour>
  </outline>
</glyph>
<glyph name="T" format="2">
  <advance width="630.0"/>
  <unicode hex="0054"/>
  <anchor x="315.0" y="0.0" name="bottom"/>
  <anchor x="315.0" y="323.0" name="center"/>
  <anchor x="289.0" y="0.0" name="ogonek"/>
  <anchor x="315.0" y="700.0" name="top"/>
  <outline>
    <contour>
      <point x="245.0" y="0.0" type="line"/>
      <point x="385.0" y="0.0" type="line"/>
      <point x="385.0" y="635.0" type="line"/>
      <point x="245.0" y="635.0" type="line"/>
    </contour>
    <contour>
      <point x="45.0" y="565.0" type="line"/>
      <point x="585.0" y="565.0" type="line"/>
      <point x="585.0" y="700.0" type="line"/>
      <point x="45.0" y="700.0" type="line"/>
    </contour>
  </outline>
</glyph>
<glyph name="X" format="2">
  <advance width="668.0"/>
  <unicode hex="0058"/>
  <anchor x="334.0" y="0.0" name="bottom"/>
  <anchor x="334.0" y="700.0" name="top"/>
  <outline>
    <contour>
      <point x="20.0" y="0.0" type="line"/>
      <point x="186.0" y="0.0" type="line"/>
      <point x="334.0" y="235.0" type="line"/>
      <point x="338.0" y="235.0" type="line"/>
      <point x="482.0" y="0.0" type="line"/>
      <point x="651.0" y="0.0" type="line"/>
      <point x="421.0" y="348.0" type="line"/>
      <point x="640.0" y="700.0" type="line"/>
      <point x="477.0" y="700.0" type="line"/>
      <point x="338.0" y="465.0" type="line"/>
      <point x="334.0" y="465.0" type="line"/>
      <point x="198.0" y="700.0" type="line"/>
      <point x="31.0" y="700.0" type="line"/>
      <point x="250.0" y="351.0" type="line"/>
    </contour>
  </outline>
</glyph>
<glyph name="k" format="2">
  <advance width="578.0"/>
  <unicode hex="006B"/>
  <anchor x="289.0" y="0.0" name="bottom"/>
  <anchor x="289.0" y="740.0" name="top"/>
  <outline>
    <contour>
      <point x="70.0" y="0.0" type="line"/>
      <point x="205.0" y="0.0" type="line"/>
      <point x="205.0" y="250.0" type="line"/>
      <point x="210.0" y="250.0" type="line"/>
      <point x="394.0" y="0.0" type="line"/>
      <point x="553.0" y="1.0" type="line"/>
      <point x="344.0" y="288.0" type="line"/>
      <point x="552.0" y="505.0" type="line"/>
      <point x="380.0" y="505.0" type="line"/>
      <point x="210.0" y="310.0" type="line"/>
      <point x="205.0" y="310.0" type="line"/>
      <point x="205.0" y="740.0" type="line"/>
      <point x="70.0" y="740.0" type="line"/>
    </contour>
  </outline>
</glyph>
<glyph name="r" format="2">
  <advance width="407.0"/>
  <unicode hex="0072"/>
  <anchor x="138.0" y="0.0" name="bottom"/>
  <anchor x="235.0" y="505.0" name="top"/>
  <outline>
    <contour>
      <point x="70.0" y="0.0" type="line"/>
      <point x="205.0" y="0.0" type="line"/>
      <point x="205.0" y="251.0" type="line" smooth="yes"/>
      <point x="205.0" y="338.0"/>
      <point x="270.0" y="385.0"/>
      <point x="368.0" y="385.0" type="curve" smooth="yes"/>
      <point x="396.0" y="385.0" type="line"/>
      <point x="398.0" y="511.0" type="line"/>
      <point x="389.0" y="511.0"/>
      <point x="381.0" y="512.0"/>
      <point x="372.0" y="512.0" type="curve" smooth="yes"/>
      <point x="278.0" y="512.0"/>
      <point x="223.0" y="483.0"/>
      <point x="206.0" y="423.0" type="curve"/>
      <point x="201.0" y="423.0" type="line"/>
      <point x="201.0" y="505.0" type="line"/>
      <point x="70.0" y="505.0" type="line"/>
    </contour>
  </outline>
</glyph>
<glyph name="y" format="2">
  <advance width="591.0"/>
  <unicode hex="0079"/>
  <anchor x="444.0" y="0.0" name="bottom"/>
  <anchor x="178.0" y="-213.0" name="ogonek"/>
  <anchor x="297.0" y="505.0" name="top"/>
  <anchor x="298.0" y="444.0" name="top_hook"/>
  <outline>
    <contour>
      <point x="92.0" y="-223.0" type="curve" smooth="yes"/>
      <point x="207.0" y="-223.0"/>
      <point x="286.0" y="-182.0"/>
      <point x="344.0" y="-44.0" type="curve" smooth="yes"/>
      <point x="576.0" y="505.0" type="line"/>
      <point x="419.0" y="505.0" type="line"/>
      <point x="325.0" y="217.0" type="line" smooth="yes"/>
      <point x="318.0" y="196.0"/>
      <point x="306.0" y="161.0"/>
      <point x="301.0" y="130.0" type="curve"/>
      <point x="296.0" y="130.0" type="line"/>
      <point x="291.0" y="161.0"/>
      <point x="279.0" y="196.0"/>
      <point x="272.0" y="217.0" type="curve" smooth="yes"/>
      <point x="178.0" y="505.0" type="line"/>
      <point x="18.0" y="505.0" type="line"/>
      <point x="214.0" y="24.0" type="line"/>
      <point x="201.0" y="-6.0" type="line" smooth="yes"/>
      <point x="178.0" y="-60.0"/>
      <point x="144.0" y="-91.0"/>
      <point x="92.0" y="-91.0" type="curve" smooth="yes"/>
      <point x="70.0" y="-91.0"/>
      <point x="55.0" y="-89.0"/>
      <point x="35.0" y="-83.0" type="curve"/>
      <point x="15.0" y="-213.0" type="line"/>
      <point x="42.0" y="-220.0"/>
      <point x="65.0" y="-223.0"/>
    </contour>
  </outline>
</glyph>
<glyph name="z" format="2">
  <advance width="550.0"/>
  <unicode hex="007A"/>
  <anchor x="280.0" y="0.0" name="bottom"/>
  <anchor x="498.0" y="0.0" name="ogonek"/>
  <anchor x="280.0" y="505.0" name="top"/>
  <outline>
    <contour>
      <point x="44.0" y="0.0" type="line"/>
      <point x="498.0" y="0.0" type="line"/>
      <point x="498.0" y="120.0" type="line"/>
      <point x="264.0" y="120.0" type="line"/>
      <point x="264.0" y="122.0" type="line"/>
      <point x="274.0" y="129.0"/>
      <point x="279.0" y="136.0"/>
      <point x="296.0" y="162.0" type="curve" smooth="yes"/>
      <point x="502.0" y="490.0" type="line"/>
      <point x="502.0" y="505.0" type="line"/>
      <point x="54.0" y="505.0" type="line"/>
      <point x="54.0" y="385.0" type="line"/>
      <point x="285.0" y="385.0" type="line"/>
      <point x="285.0" y="383.0" type="line"/>
      <point x="274.0" y="375.0"/>
      <point x="267.0" y="366.0"/>
      <point x="249.0" y="338.0" type="curve" smooth="yes"/>
      <point x="44.0" y="15.0" type="line"/>
    </contour>
  </outline>
</glyph>
<glyph name="yen" format="2">
  <advance width="642.0"/>
  <unicode hex="00A5"/>
  <anchor x="323.0" y="30.0" name="bottom"/>
  <anchor x="323.0" y="668.89" name="top"/>
  <anchor x="30.0" y="668.89" name="topleft"/>
  <outline>
    <contour>
      <point x="82.0" y="289.0" type="line"/>
      <point x="570.0" y="289.0" type="line"/>
      <point x="570.0" y="375.0" type="line"/>
      <point x="82.0" y="375.0" type="line"/>
    </contour>
    <contour>
      <point x="82.0" y="148.0" type="line"/>
      <point x="570.0" y="148.0" type="line"/>
      <point x="570.0" y="233.0" type="line"/>
      <point x="82.0" y="233.0" type="line"/>
    </contour>
    <component base="Y" yScale="0.9127" xOffset="10.0" yOffset="30.0"/>
  </outline>
</glyph>
<glyph name="section" format="2">
  <advance width="533.0"/>
  <unicode hex="00A7"/>
  <outline>
    <contour>
      <point x="269.0" y="-109.0" type="curve" smooth="yes"/>
      <point x="387.0" y="-109.0"/>
      <point x="470.0" y="-49.0"/>
      <point x="470.0" y="59.0" type="curve" smooth="yes"/>
      <point x="470.0" y="122.0"/>
      <point x="442.0" y="159.0"/>
      <point x="396.0" y="180.0" type="curve"/>
      <point x="396.0" y="182.0" type="line"/>
      <point x="448.0" y="206.0"/>
      <point x="473.0" y="244.0"/>
      <point x="473.0" y="301.0" type="curve" smooth="yes"/>
      <point x="473.0" y="428.0"/>
      <point x="359.0" y="454.0"/>
      <point x="295.0" y="475.0" type="curve" smooth="yes"/>
      <point x="248.0" y="490.0"/>
      <point x="209.0" y="503.0"/>
      <point x="209.0" y="547.0" type="curve" smooth="yes"/>
      <point x="209.0" y="579.0"/>
      <point x="241.0" y="602.0"/>
      <point x="280.0" y="602.0" type="curve" smooth="yes"/>
      <point x="325.0" y="602.0"/>
      <point x="350.0" y="582.0"/>
      <point x="377.0" y="540.0" type="curve"/>
      <point x="470.0" y="598.0" type="line"/>
      <point x="430.0" y="662.0"/>
      <point x="375.0" y="700.0"/>
      <point x="286.0" y="700.0" type="curve" smooth="yes"/>
      <point x="174.0" y="700.0"/>
      <point x="95.0" y="645.0"/>
      <point x="95.0" y="539.0" type="curve" smooth="yes"/>
      <point x="95.0" y="484.0"/>
      <point x="123.0" y="449.0"/>
      <point x="177.0" y="424.0" type="curve"/>
      <point x="177.0" y="422.0" type="line"/>
      <point x="121.0" y="399.0"/>
      <point x="92.0" y="352.0"/>
      <point x="92.0" y="293.0" type="curve" smooth="yes"/>
      <point x="92.0" y="208.0"/>
      <point x="148.0" y="161.0"/>
      <point x="232.0" y="139.0" type="curve" smooth="yes"/>
      <point x="299.0" y="122.0"/>
      <point x="357.0" y="105.0"/>
      <point x="357.0" y="52.0" type="curve" smooth="yes"/>
      <point x="357.0" y="14.0"/>
      <point x="326.0" y="-11.0"/>
      <point x="275.0" y="-11.0" type="curve" smooth="yes"/>
      <point x="228.0" y="-11.0"/>
      <point x="182.0" y="13.0"/>
      <point x="154.0" y="69.0" type="curve"/>
      <point x="60.0" y="9.0" type="line"/>
      <point x="107.0" y="-74.0"/>
      <point x="182.0" y="-109.0"/>
    </contour>
    <contour>
      <point x="300.0" y="239.0" type="curve" smooth="yes"/>
      <point x="247.0" y="239.0"/>
      <point x="206.0" y="266.0"/>
      <point x="206.0" y="302.0" type="curve" smooth="yes"/>
      <point x="206.0" y="337.0"/>
      <point x="235.0" y="360.0"/>
      <point x="281.0" y="360.0" type="curve" smooth="yes"/>
      <point x="325.0" y="360.0"/>
      <point x="360.0" y="331.0"/>
      <point x="360.0" y="294.0" type="curve" smooth="yes"/>
      <point x="360.0" y="260.0"/>
      <point x="337.0" y="239.0"/>
    </contour>
  </outline>
</glyph>
<glyph name="AE" format="2">
  <advance width="1013.0"/>
  <unicode hex="00C6"/>
  <anchor x="603.0" y="0.0" name="bottom"/>
  <anchor x="856.0" y="0.0" name="ogonek"/>
  <anchor x="603.0" y="700.0" name="top"/>
  <anchor x="560.0" y="700.0" name="top_ring"/>
  <outline>
    <contour>
      <point x="11.0" y="0.0" type="line"/>
      <point x="183.0" y="0.0" type="line"/>
      <point x="287.0" y="166.0" type="line"/>
      <point x="307.0" y="207.0" type="line"/>
      <point x="452.0" y="445.0" type="line" smooth="yes"/>
      <point x="478.0" y="488.0"/>
      <point x="507.0" y="537.0"/>
      <point x="528.0" y="582.0" type="curve"/>
      <point x="497.0" y="565.0" type="line"/>
      <point x="672.0" y="565.0" type="line"/>
      <point x="588.0" y="700.0" type="line"/>
      <point x="469.0" y="700.0" type="line"/>
    </contour>
    <contour>
      <point x="210.0" y="133.0" type="line"/>
      <point x="624.0" y="133.0" type="line"/>
      <point x="624.0" y="268.0" type="line"/>
      <point x="210.0" y="268.0" type="line"/>
    </contour>
    <component base="E" xOffset="452.0"/>
  </outline>
</glyph>
<glyph name="Thorn" format="2">
  <advance width="619.0"/>
  <unicode hex="00DE"/>
  <anchor x="300.0" y="0.0" name="bottom"/>
  <anchor x="300.0" y="700.0" name="top"/>
  <outline>
    <contour>
      <point x="80.0" y="0.0" type="line"/>
      <point x="220.0" y="0.0" type="line"/>
      <point x="220.0" y="124.0" type="line"/>
      <point x="326.0" y="124.0" type="line" smooth="yes"/>
      <point x="483.0" y="124.0"/>
      <point x="579.0" y="203.0"/>
      <point x="579.0" y="351.0" type="curve" smooth="yes"/>
      <point x="579.0" y="498.0"/>
      <point x="483.0" y="580.0"/>
      <point x="326.0" y="580.0" type="curve" smooth="yes"/>
      <point x="220.0" y="580.0" type="line"/>
      <point x="220.0" y="700.0" type="line"/>
      <point x="80.0" y="700.0" type="line"/>
    </contour>
    <contour>
      <point x="220.0" y="259.0" type="line"/>
      <point x="220.0" y="445.0" type="line"/>
      <point x="318.0" y="445.0" type="line" smooth="yes"/>
      <point x="394.0" y="445.0"/>
      <point x="437.0" y="416.0"/>
      <point x="437.0" y="350.0" type="curve" smooth="yes"/>
      <point x="437.0" y="283.0"/>
      <point x="394.0" y="259.0"/>
      <point x="318.0" y="259.0" type="curve" smooth="yes"/>
    </contour>
  </outline>
</glyph>
<glyph name="ae" format="2">
  <advance width="1009.0"/>
  <unicode hex="00E6"/>
  <anchor x="516.0" y="0.0" name="bottom"/>
  <anchor x="449.0" y="0.0" name="ogonek"/>
  <anchor x="516.0" y="505.0" name="top"/>
  <outline>
    <contour>
      <point x="738.0" y="-13.0" type="curve" smooth="yes"/>
      <point x="832.0" y="-13.0"/>
      <point x="911.0" y="26.0"/>
      <point x="954.0" y="75.0" type="curve"/>
      <point x="865.0" y="165.0" type="line"/>
      <point x="839.0" y="129.0"/>
      <point x="781.0" y="107.0"/>
      <point x="731.0" y="107.0" type="curve" smooth="yes"/>
      <point x="680.0" y="107.0"/>
      <point x="593.0" y="150.0"/>
      <point x="586.0" y="239.0" type="curve"/>
      <point x="585.0" y="260.0" type="line"/>
      <point x="581.0" y="381.0"/>
      <point x="680.0" y="409.0"/>
      <point x="719.0" y="409.0" type="curve" smooth="yes"/>
      <point x="799.0" y="409.0"/>
      <point x="844.0" y="357.0"/>
      <point x="841.0" y="265.0" type="curve"/>
      <point x="881.0" y="316.0" type="line"/>
      <point x="531.0" y="316.0" type="line"/>
      <point x="531.0" y="216.0" type="line"/>
      <point x="973.0" y="216.0" type="line"/>
      <point x="976.0" y="225.0"/>
      <point x="977.0" y="245.0"/>
      <point x="977.0" y="262.0" type="curve" smooth="yes"/>
      <point x="977.0" y="416.0"/>
      <point x="879.0" y="518.0"/>
      <point x="758.0" y="518.0" type="curve" smooth="yes"/>
      <point x="606.0" y="518.0"/>
      <point x="554.0" y="419.0"/>
      <point x="554.0" y="249.0" type="curve" smooth="yes"/>
      <point x="554.0" y="99.0"/>
      <point x="602.0" y="-13.0"/>
    </contour>
    <contour>
      <point x="459.0" y="429.0" type="line"/>
      <point x="459.0" y="74.0" type="line"/>
      <point x="604.0" y="74.0" type="line"/>
      <point x="554.0" y="262.0" type="line"/>
      <point x="604.0" y="429.0" type="line"/>
    </contour>
    <component base="a"/>
  </outline>
</glyph>
<glyph name="florin" format="2">
  <advance width="620.0"/>
  <unicode hex="0192"/>
  <outline>
    <contour>
      <point x="48.0" y="1.0" type="line"/>
      <point x="77.0" y="-3.0"/>
      <point x="107.0" y="-7.0"/>
      <point x="136.0" y="-7.0" type="curve" smooth="yes"/>
      <point x="230.0" y="-7.0"/>
      <point x="309.0" y="33.0"/>
      <point x="340.0" y="172.0" type="curve" smooth="yes"/>
      <point x="413.0" y="504.0" type="line" smooth="yes"/>
      <point x="427.0" y="567.0"/>
      <point x="457.0" y="590.0"/>
      <point x="511.0" y="590.0" type="curve" smooth="yes"/>
      <point x="532.0" y="590.0"/>
      <point x="552.0" y="586.0"/>
      <point x="573.0" y="583.0" type="curve"/>
      <point x="573.0" y="700.0" type="line"/>
      <point x="549.0" y="703.0"/>
      <point x="524.0" y="707.0"/>
      <point x="500.0" y="707.0" type="curve" smooth="yes"/>
      <point x="399.0" y="707.0"/>
      <point x="320.0" y="661.0"/>
      <point x="289.0" y="521.0" type="curve" smooth="yes"/>
      <point x="216.0" y="189.0" type="line" smooth="yes"/>
      <point x="202.0" y="126.0"/>
      <point x="171.0" y="109.0"/>
      <point x="125.0" y="109.0" type="curve" smooth="yes"/>
      <point x="99.0" y="109.0"/>
      <point x="74.0" y="112.0"/>
      <point x="48.0" y="116.0" type="curve"/>
    </contour>
    <contour>
      <point x="78.0" y="317.0" type="line"/>
      <point x="543.0" y="317.0" type="line"/>
      <point x="543.0" y="424.0" type="line"/>
      <point x="78.0" y="424.0" type="line"/>
    </contour>
  </outline>
</glyph>
<glyph name="Xi" format="2">
  <advance width="550.0"/>
  <unicode hex="039E"/>
  <outline>
    <contour>
      <point x="69.0" y="0.0" type="line"/>
      <point x="481.0" y="0.0" type="line"/>
      <point x="481.0" y="135.0" type="line"/>
      <point x="69.0" y="135.0" type="line"/>
    </contour>
    <contour>
      <point x="74.0" y="287.0" type="line"/>
      <point x="474.0" y="287.0" type="line"/>
      <point x="474.0" y="422.0" type="line"/>
      <point x="74.0" y="422.0" type="line"/>
    </contour>
    <contour>
      <point x="69.0" y="565.0" type="line"/>
      <point x="479.0" y="565.0" type="line"/>
      <point x="479.0" y="700.0" type="line"/>
      <point x="69.0" y="700.0" type="line"/>
    </contour>
  </outline>
</glyph>
<glyph name="Germandbls" format="2">
  <advance width="731.0"/>
  <unicode hex="1E9E"/>
  <outline>
    <contour>
      <point x="457.0" y="-13.0" type="curve" smooth="yes"/>
      <point x="607.0" y="-13.0"/>
      <point x="698.0" y="100.0"/>
      <point x="698.0" y="212.0" type="curve" smooth="yes"/>
      <point x="698.0" y="284.0"/>
      <point x="665.0" y="384.0"/>
      <point x="549.0" y="406.0" type="curve"/>
      <point x="549.0" y="410.0" type="line"/>
      <point x="707.0" y="685.0" type="line"/>
      <point x="707.0" y="700.0" type="line"/>
      <point x="80.0" y="700.0" type="line"/>
      <point x="80.0" y="0.0" type="line"/>
      <point x="220.0" y="0.0" type="line"/>
      <point x="220.0" y="565.0" type="line"/>
      <point x="491.0" y="565.0" type="line"/>
      <point x="491.0" y="563.0" type="line"/>
      <point x="480.0" y="552.0"/>
      <point x="472.0" y="538.0"/>
      <point x="463.0" y="522.0" type="curve" smooth="yes"/>
      <point x="365.0" y="349.0" type="line"/>
      <point x="365.0" y="341.0" type="line"/>
      <point x="511.0" y="352.0"/>
      <point x="564.0" y="280.0"/>
      <point x="564.0" y="215.0" type="curve" smooth="yes"/>
      <point x="564.0" y="140.0"/>
      <point x="509.0" y="108.0"/>
      <point x="452.0" y="108.0" type="curve" smooth="yes"/>
      <point x="415.0" y="108.0"/>
      <point x="383.0" y="116.0"/>
      <point x="358.0" y="123.0" type="curve"/>
      <point x="358.0" y="4.0" type="line"/>
      <point x="383.0" y="-8.0"/>
      <point x="430.0" y="-13.0"/>
    </contour>
  </outline>
</glyph>
<glyph name="minute" format="2">
  <advance width="308.0"/>
  <unicode hex="2032"/>
  <outline>
    <contour>
      <point x="85.0" y="433.0" type="line"/>
      <point x="156.0" y="433.0" type="line"/>
      <point x="248.0" y="700.0" type="line"/>
      <point x="97.0" y="700.0" type="line"/>
    </contour>
  </outline>
</glyph>
<glyph name="sheqel" format="2">
  <advance width="600.0"/>
  <unicode hex="20AA"/>
  <outline>
    <contour>
      <point x="237.0" y="30.0" type="line"/>
      <point x="375.0" y="30.0" type="line" smooth="yes"/>
      <point x="520.0" y="30.0"/>
      <point x="559.0" y="103.0"/>
      <point x="559.0" y="230.0" type="curve" smooth="yes"/>
      <point x="559.0" y="474.0" type="line"/>
      <point x="474.0" y="474.0" type="line"/>
      <point x="474.0" y="244.0" type="line" smooth="yes"/>
      <point x="474.0" y="204.0"/>
      <point x="445.0" y="160.0"/>
      <point x="354.0" y="160.0" type="curve" smooth="yes"/>
      <point x="237.0" y="160.0" type="line"/>
    </contour>
    <contour>
      <point x="42.0" y="30.0" type="line"/>
      <point x="127.0" y="30.0" type="line"/>
      <point x="127.0" y="475.0" type="line"/>
      <point x="42.0" y="475.0" type="line"/>
    </contour>
    <contour>
      <point x="186.0" y="30.0" type="line"/>
      <point x="271.0" y="30.0" type="line"/>
      <point x="271.0" y="296.0" type="line"/>
      <point x="186.0" y="296.0" type="line"/>
    </contour>
    <contour>
      <point x="330.0" y="208.0" type="line"/>
      <point x="415.0" y="208.0" type="line"/>
      <point x="415.0" y="275.0" type="line" smooth="yes"/>
      <point x="415.0" y="402.0"/>
      <point x="376.0" y="475.0"/>
      <point x="231.0" y="475.0" type="curve" smooth="yes"/>
      <point x="93.0" y="475.0" type="line"/>
      <point x="93.0" y="345.0" type="line"/>
      <point x="210.0" y="345.0" type="line" smooth="yes"/>
      <point x="302.0" y="345.0"/>
      <point x="330.0" y="307.0"/>
      <point x="330.0" y="262.0" type="curve" smooth="yes"/>
    </contour>
  </outline>
</glyph>
<glyph name="dong" format="2">
  <advance width="590.0"/>
  <unicode hex="20AB"/>
  <anchor x="292.0" y="48.9292" name="_bar"/>
  <outline>
    <contour>
      <point x="262.0" y="106.0" type="curve" smooth="yes"/>
      <point x="328.0" y="106.0"/>
      <point x="371.0" y="144.0"/>
      <point x="390.0" y="190.0" type="curve"/>
      <point x="396.0" y="190.0" type="line"/>
      <point x="396.0" y="116.0" type="line"/>
      <point x="527.0" y="116.0" type="line"/>
      <point x="527.0" y="700.0" type="line"/>
      <point x="392.0" y="700.0" type="line"/>
      <point x="392.0" y="457.0" type="line"/>
      <point x="386.0" y="457.0" type="line"/>
      <point x="367.0" y="506.0"/>
      <point x="324.0" y="543.0"/>
      <point x="262.0" y="543.0" type="curve" smooth="yes"/>
      <point x="135.0" y="543.0"/>
      <point x="50.0" y="453.0"/>
      <point x="50.0" y="319.0" type="curve" smooth="yes"/>
      <point x="50.0" y="196.0"/>
      <point x="135.0" y="106.0"/>
    </contour>
    <contour>
      <point x="291.0" y="219.0" type="curve" smooth="yes"/>
      <point x="236.0" y="219.0"/>
      <point x="185.0" y="256.0"/>
      <point x="185.0" y="320.0" type="curve" smooth="yes"/>
      <point x="185.0" y="393.0"/>
      <point x="236.0" y="430.0"/>
      <point x="291.0" y="430.0" type="curve" smooth="yes"/>
      <point x="346.0" y="430.0"/>
      <point x="392.0" y="393.0"/>
      <point x="392.0" y="319.0" type="curve" smooth="yes"/>
      <point x="392.0" y="256.0"/>
      <point x="346.0" y="219.0"/>
    </contour>
    <component base="strokeshortcomb" xScale="1.2979" yScale="0.7092" xOffset="292.0" yOffset="-200.0"/>
    <component base="strokeshortcomb" xScale="0.7863" yScale="0.7089" xOffset="422.0" yOffset="368.0"/>
  </outline>
</glyph>
<glyph name="kip" format="2">
  <advance width="648.0"/>
  <unicode hex="20AD"/>
  <anchor x="323.0" y="28.0" name="bottom"/>
  <anchor x="462.0" y="28.0" name="ogonek"/>
  <anchor x="313.0" y="674.4622" name="top"/>
  <outline>
    <contour>
      <point x="0.0" y="317.0" type="line"/>
      <point x="638.0" y="317.0" type="line"/>
      <point x="638.0" y="402.0" type="line"/>
      <point x="0.0" y="402.0" type="line"/>
    </contour>
    <component base="K" yScale="0.9222" yOffset="28.0"/>
  </outline>
</glyph>
<glyph name="hryvnia" format="2">
  <advance width="580.0"/>
  <unicode hex="20B4"/>
  <outline>
    <contour>
      <point x="308.0" y="27.0" type="curve" smooth="yes"/>
      <point x="419.0" y="27.0"/>
      <point x="505.0" y="56.0"/>
      <point x="571.0" y="160.0" type="curve"/>
      <point x="450.0" y="244.0" type="line"/>
      <point x="418.0" y="187.0"/>
      <point x="362.0" y="161.0"/>
      <point x="305.0" y="161.0" type="curve" smooth="yes"/>
      <point x="252.0" y="161.0"/>
      <point x="213.0" y="186.0"/>
      <point x="213.0" y="228.0" type="curve" smooth="yes"/>
      <point x="213.0" y="264.0"/>
      <point x="248.0" y="281.0"/>
      <point x="283.0" y="302.0" type="curve"/>
      <point x="86.0" y="319.0" type="line"/>
      <point x="71.0" y="296.0"/>
      <point x="62.0" y="267.0"/>
      <point x="62.0" y="230.0" type="curve" smooth="yes"/>
      <point x="62.0" y="95.0"/>
      <point x="159.0" y="27.0"/>
    </contour>
    <contour>
      <point x="8.0" y="257.0" type="line"/>
      <point x="574.0" y="257.0" type="line"/>
      <point x="574.0" y="342.0" type="line"/>
      <point x="8.0" y="342.0" type="line"/>
    </contour>
    <contour>
      <point x="8.0" y="378.0" type="line"/>
      <point x="574.0" y="378.0" type="line"/>
      <point x="574.0" y="463.0" type="line"/>
      <point x="8.0" y="463.0" type="line"/>
    </contour>
    <contour>
      <point x="300.0" y="416.0" type="curve"/>
      <point x="513.0" y="416.0" type="line"/>
      <point x="519.0" y="432.0"/>
      <point x="522.0" y="451.0"/>
      <point x="522.0" y="473.0" type="curve" smooth="yes"/>
      <point x="522.0" y="607.0"/>
      <point x="421.0" y="672.0"/>
      <point x="283.0" y="672.0" type="curve" smooth="yes"/>
      <point x="174.0" y="672.0"/>
      <point x="112.0" y="633.0"/>
      <point x="56.0" y="554.0" type="curve"/>
      <point x="172.0" y="474.0" type="line"/>
      <point x="203.0" y="525.0"/>
      <point x="242.0" y="539.0"/>
      <point x="297.0" y="539.0" type="curve" smooth="yes"/>
      <point x="336.0" y="539.0"/>
      <point x="371.0" y="514.0"/>
      <point x="371.0" y="488.0" type="curve" smooth="yes"/>
      <point x="371.0" y="446.0"/>
      <point x="343.0" y="432.0"/>
    </contour>
  </outline>
</glyph>
<glyph name="manat" format="2">
  <advance width="564.0"/>
  <unicode hex="20BC"/>
  <outline>
    <contour>
      <point x="47.0" y="30.0" type="line"/>
      <point x="182.0" y="30.0" type="line"/>
      <point x="182.0" y="190.0" type="line" smooth="yes"/>
      <point x="182.0" y="280.0"/>
      <point x="220.0" y="319.0"/>
      <point x="286.0" y="319.0" type="curve" smooth="yes"/>
      <point x="355.0" y="319.0"/>
      <point x="382.0" y="280.0"/>
      <point x="382.0" y="190.0" type="curve" smooth="yes"/>
      <point x="382.0" y="30.0" type="line"/>
      <point x="517.0" y="30.0" type="line"/>
      <point x="517.0" y="223.0" type="line" smooth="yes"/>
      <point x="517.0" y="354.0"/>
      <point x="437.0" y="437.0"/>
      <point x="284.0" y="437.0" type="curve" smooth="yes"/>
      <point x="133.0" y="437.0"/>
      <point x="47.0" y="354.0"/>
      <point x="47.0" y="223.0" type="curve" smooth="yes"/>
    </contour>
    <contour>
      <point x="240.0" y="30.0" type="line"/>
      <point x="325.0" y="30.0" type="line"/>
      <point x="325.0" y="505.0" type="line"/>
      <point x="240.0" y="505.0" type="line"/>
    </contour>
  </outline>
</glyph>
<glyph name="whiteSquare" format="2">
  <advance width="890.0"/>
  <unicode hex="25A1"/>
  <outline>
    <contour>
      <point x="90.0" y="0.0" type="line"/>
      <point x="800.0" y="0.0" type="line"/>
      <point x="800.0" y="700.0" type="line"/>
      <point x="90.0" y="700.0" type="line"/>
    </contour>
    <contour>
      <point x="166.0" y="75.0" type="line"/>
      <point x="166.0" y="625.0" type="line"/>
      <point x="724.0" y="625.0" type="line"/>
      <point x="724.0" y="75.0" type="line"/>
    </contour>
  </outline>
</glyph>
<glyph name="rightanglebracket-math" format="2">
  <advance width="375.0"/>
  <unicode hex="27E9"/>
  <outline>
    <contour>
      <point x="40.0" y="-220.0" type="line"/>
      <point x="195.0" y="-220.0" type="line"/>
      <point x="365.0" y="240.0" type="line"/>
      <point x="195.0" y="700.0" type="line"/>
      <point x="41.0" y="700.0" type="line"/>
      <point x="210.0" y="238.0" type="line"/>
      <point x="210.0" y="233.0" type="line"/>
    </contour>
  </outline>
</glyph>
<glyph name="G.ss02" format="2">
  <advance width="743.0"/>
  <anchor x="409.0" y="0.0" name="bottom"/>
  <anchor x="529.0" y="9.0" name="ogonek"/>
  <anchor x="399.0" y="700.0" name="top"/>
  <outline>
    <contour>
      <point x="407.0" y="-13.0" type="curve" smooth="yes"/>
      <point x="527.0" y="-13.0"/>
      <point x="626.0" y="35.0"/>
      <point x="679.0" y="97.0" type="curve"/>
      <point x="679.0" y="406.0" type="line"/>
      <point x="364.0" y="406.0" type="line"/>
      <point x="364.0" y="276.0" type="line"/>
      <point x="600.0" y="276.0" type="line"/>
      <point x="540.0" y="295.0" type="line"/>
      <point x="540.0" y="117.0" type="line"/>
      <point x="578.0" y="190.0" type="line"/>
      <point x="539.0" y="147.0"/>
      <point x="469.0" y="125.0"/>
      <point x="410.0" y="125.0" type="curve" smooth="yes"/>
      <point x="280.0" y="125.0"/>
      <point x="187.0" y="221.0"/>
      <point x="187.0" y="349.0" type="curve" smooth="yes"/>
      <point x="187.0" y="483.0"/>
      <point x="274.0" y="575.0"/>
      <point x="411.0" y="575.0" type="curve" smooth="yes"/>
      <point x="479.0" y="575.0"/>
      <point x="524.0" y="550.0"/>
      <point x="566.0" y="506.0" type="curve"/>
      <point x="666.0" y="601.0" type="line"/>
      <point x="600.0" y="679.0"/>
      <point x="508.0" y="713.0"/>
      <point x="407.0" y="713.0" type="curve" smooth="yes"/>
      <point x="205.0" y="713.0"/>
      <point x="42.0" y="546.0"/>
      <point x="42.0" y="349.0" type="curve" smooth="yes"/>
      <point x="42.0" y="142.0"/>
      <point x="195.0" y="-13.0"/>
    </contour>
  </outline>
</glyph>
<glyph name="a.ss01" format="2">
  <advance width="564.0"/>
  <anchor x="267.0" y="0.0" name="bottom"/>
  <anchor x="368.0" y="0.0" name="ogonek"/>
  <anchor x="271.0" y="505.0" name="top"/>
  <outline>
    <contour>
      <point x="208.0" y="-12.0" type="curve" smooth="yes"/>
      <point x="292.0" y="-12.0"/>
      <point x="343.0" y="27.0"/>
      <point x="362.0" y="65.0" type="curve"/>
      <point x="368.0" y="65.0" type="line"/>
      <point x="368.0" y="0.0" type="line"/>
      <point x="499.0" y="0.0" type="line"/>
      <point x="499.0" y="326.0" type="line" smooth="yes"/>
      <point x="499.0" y="430.0"/>
      <point x="416.0" y="518.0"/>
      <point x="267.0" y="518.0" type="curve" smooth="yes"/>
      <point x="172.0" y="518.0"/>
      <point x="104.0" y="480.0"/>
      <point x="53.0" y="422.0" type="curve"/>
      <point x="142.0" y="337.0" type="line"/>
      <point x="171.0" y="371.0"/>
      <point x="213.0" y="395.0"/>
      <point x="271.0" y="395.0" type="curve" smooth="yes"/>
      <point x="335.0" y="395.0"/>
      <point x="364.0" y="362.0"/>
      <point x="364.0" y="332.0" type="curve" smooth="yes"/>
      <point x="364.0" y="285.0" type="line"/>
      <point x="396.0" y="322.0" type="line"/>
      <point x="280.0" y="314.0" type="line" smooth="yes"/>
      <point x="110.0" y="302.0"/>
      <point x="45.0" y="237.0"/>
      <point x="45.0" y="144.0" type="curve" smooth="yes"/>
      <point x="45.0" y="55.0"/>
      <point x="115.0" y="-12.0"/>
    </contour>
    <contour>
      <point x="254.0" y="102.0" type="curve" smooth="yes"/>
      <point x="204.0" y="102.0"/>
      <point x="174.0" y="122.0"/>
      <point x="174.0" y="153.0" type="curve" smooth="yes"/>
      <point x="174.0" y="195.0"/>
      <point x="236.0" y="207.0"/>
      <point x="293.0" y="211.0" type="curve" smooth="yes"/>
      <point x="396.0" y="218.0" type="line"/>
      <point x="364.0" y="250.0" type="line"/>
      <point x="364.0" y="212.0" type="line" smooth="yes"/>
      <point x="364.0" y="151.0"/>
      <point x="323.0" y="102.0"/>
    </contour>
  </outline>
</glyph>
<glyph name="comma.ss04" format="2">
  <advance width="280.0"/>
  <outline>
    <contour>
      <point x="101.0" y="155.0" type="line"/>
      <point x="96.0" y="81.0" type="line" smooth="yes"/>
      <point x="90.0" y="-15.0"/>
      <point x="59.0" y="-89.0"/>
      <point x="24.0" y="-156.0" type="curve"/>
      <point x="77.0" y="-185.0" type="line"/>
      <point x="157.0" y="-102.0"/>
      <point x="198.0" y="-20.0"/>
      <point x="215.0" y="78.0" type="curve" smooth="yes"/>
      <point x="227.0" y="147.0" type="line"/>
    </contour>
  </outline>
</glyph>
<glyph name="guarani.tf.ss02" format="2">
  <advance width="596.0"/>
  <anchor x="324.0" y="653.0" name="_TopCurrency"/>
  <outline>
    <contour>
      <point x="327.0" y="22.0" type="curve" smooth="yes"/>
      <point x="434.0" y="22.0"/>
      <point x="527.0" y="67.0"/>
      <point x="577.0" y="124.0" type="curve"/>
      <point x="577.0" y="392.0" type="line"/>
      <point x="273.0" y="392.0" type="line"/>
      <point x="273.0" y="278.0" type="line"/>
      <point x="502.0" y="278.0" type="line"/>
      <point x="451.0" y="298.0" type="line"/>
      <point x="451.0" y="143.0" type="line"/>
      <point x="481.0" y="211.0" type="line"/>
      <point x="454.0" y="171.0"/>
      <point x="388.0" y="150.0"/>
      <point x="330.0" y="150.0" type="curve" smooth="yes"/>
      <point x="209.0" y="150.0"/>
      <point x="155.0" y="240.0"/>
      <point x="155.0" y="349.0" type="curve" smooth="yes"/>
      <point x="155.0" y="458.0"/>
      <point x="218.0" y="549.0"/>
      <point x="318.0" y="549.0" type="curve" smooth="yes"/>
      <point x="369.0" y="549.0"/>
      <point x="399.0" y="534.0"/>
      <point x="441.0" y="486.0" type="curve"/>
      <point x="540.0" y="569.0" type="line"/>
      <point x="472.0" y="651.0"/>
      <point x="417.0" y="677.0"/>
      <point x="315.0" y="677.0" type="curve" smooth="yes"/>
      <point x="137.0" y="677.0"/>
      <point x="18.0" y="525.0"/>
      <point x="18.0" y="349.0" type="curve" smooth="yes"/>
      <point x="18.0" y="173.0"/>
      <point x="137.0" y="22.0"/>
    </contour>
    <component base="verticalTopCurrencycomb" xOffset="324.0"/>
    <component base="verticalBottomCurrencycomb" xOffset="324.0"/>
  </outline>
</glyph>
<glyph name="one.tf" format="2">
  <advance width="596.0"/>
  <outline>
    <contour>
      <point x="250.0" y="0.0" type="line"/>
      <point x="390.0" y="0.0" type="line"/>
      <point x="390.0" y="713.0" type="line"/>
      <point x="38.0" y="568.0" type="line"/>
      <point x="86.0" y="451.0" type="line"/>
      <point x="246.0" y="517.0" type="line"/>
      <point x="250.0" y="512.0" type="line"/>
    </contour>
    <contour>
      <point x="95.0" y="-1.0" type="line"/>
      <point x="540.0" y="-1.0" type="line"/>
      <point x="540.0" y="125.0" type="line"/>
      <point x="95.0" y="125.0" type="line"/>
    </contour>
  </outline>
</glyph>
<glyph name="tildecomb.case" format="2">
  <anchor x="0.0" y="700.0" name="_top"/>
  <anchor x="0.0" y="829.0" name="top"/>
  <outline>
    <contour>
      <point x="58.0" y="734.0" type="curve" smooth="yes"/>
      <point x="114.0" y="734.0"/>
      <point x="159.0" y="779.0"/>
      <point x="159.0" y="836.0" type="curve"/>
      <point x="86.0" y="836.0" type="line"/>
      <point x="86.0" y="823.0"/>
      <point x="77.0" y="810.0"/>
      <point x="58.0" y="810.0" type="curve" smooth="yes"/>
      <point x="14.0" y="810.0"/>
      <point x="16.0" y="842.0"/>
      <point x="-58.0" y="842.0" type="curve" smooth="yes"/>
      <point x="-114.0" y="842.0"/>
      <point x="-159.0" y="797.0"/>
      <point x="-159.0" y="740.0" type="curve"/>
      <point x="-86.0" y="740.0" type="line"/>
      <point x="-86.0" y="753.0"/>
      <point x="-77.0" y="766.0"/>
      <point x="-58.0" y="766.0" type="curve" smooth="yes"/>
      <point x="-14.0" y="766.0"/>
      <point x="-16.0" y="734.0"/>
    </contour>
  </outline>
</glyph>
<glyph name="two.numr" format="2">
  <advance width="347.0"/>
  <outline>
    <contour>
      <point x="23.0" y="315.0" type="line"/>
      <point x="301.0" y="315.0" type="line"/>
      <point x="301.0" y="389.0" type="line"/>
      <point x="176.0" y="389.0" type="line"/>
      <point x="176.0" y="390.0" type="line"/>
      <point x="184.0" y="393.0"/>
      <point x="210.0" y="422.0"/>
      <point x="215.0" y="429.0" type="curve" smooth="yes"/>
      <point x="265.0" y="494.0" type="line" smooth="yes"/>
      <point x="287.0" y="524.0"/>
      <point x="298.0" y="548.0"/>
      <point x="298.0" y="584.0" type="curve" smooth="yes"/>
      <point x="298.0" y="658.0"/>
      <point x="236.0" y="708.0"/>
      <point x="162.0" y="708.0" type="curve" smooth="yes"/>
      <point x="99.0" y="708.0"/>
      <point x="23.0" y="670.0"/>
      <point x="23.0" y="569.0" type="curve"/>
      <point x="110.0" y="569.0" type="line"/>
      <point x="110.0" y="607.0"/>
      <point x="124.0" y="630.0"/>
      <point x="162.0" y="630.0" type="curve" smooth="yes"/>
      <point x="194.0" y="630.0"/>
      <point x="213.0" y="610.0"/>
      <point x="213.0" y="580.0" type="curve" smooth="yes"/>
      <point x="213.0" y="555.0"/>
      <point x="192.0" y="528.0"/>
      <point x="176.0" y="508.0" type="curve" smooth="yes"/>
      <point x="23.0" y="329.0" type="line"/>
    </contour>
  </outline>
</glyph>
<glyph name="zero.ss10" format="2">
  <advance width="654.0"/>
  <outline>
    <contour>
      <point x="327.0" y="-13.0" type="curve" smooth="yes"/>
      <point x="478.0" y="-13.0"/>
      <point x="589.0" y="110.0"/>
      <point x="589.0" y="348.0" type="curve" smooth="yes"/>
      <point x="589.0" y="582.0"/>
      <point x="486.0" y="711.0"/>
      <point x="327.0" y="711.0" type="curve" smooth="yes"/>
      <point x="169.0" y="711.0"/>
      <point x="65.0" y="585.0"/>
      <point x="65.0" y="348.0" type="curve" smooth="yes"/>
      <point x="65.0" y="109.0"/>
      <point x="176.0" y="-13.0"/>
    </contour>
    <contour>
      <point x="327.0" y="117.0" type="curve" smooth="yes"/>
      <point x="256.0" y="117.0"/>
      <point x="210.0" y="177.0"/>
      <point x="210.0" y="348.0" type="curve" smooth="yes"/>
      <point x="210.0" y="530.0"/>
      <point x="256.0" y="581.0"/>
      <point x="327.0" y="581.0" type="curve" smooth="yes"/>
      <point x="398.0" y="581.0"/>
      <point x="444.0" y="530.0"/>
      <point x="444.0" y="348.0" type="curve" smooth="yes"/>
      <point x="444.0" y="177.0"/>
      <point x="398.0" y="117.0"/>
    </contour>
  </outline>
</glyph>
